<mxfile host="Electron" agent="Mozilla/5.0 (Macintosh; Intel Mac OS X 10_15_7) AppleWebKit/537.36 (KHTML, like Gecko) draw.io/26.0.16 Chrome/132.0.6834.196 Electron/34.2.0 Safari/537.36" version="26.0.16">
  <diagram name="Page-1" id="03018318-947c-dd8e-b7a3-06fadd420f32">
    <mxGraphModel dx="1194" dy="726" grid="1" gridSize="10" guides="1" tooltips="1" connect="1" arrows="1" fold="1" page="1" pageScale="1" pageWidth="1100" pageHeight="850" background="none" math="0" shadow="0">
      <root>
        <mxCell id="0" />
        <mxCell id="1" parent="0" />
        <mxCell id="677b7b8949515195-8" value="" style="whiteSpace=wrap;html=1;rounded=0;shadow=0;labelBackgroundColor=none;strokeWidth=1;fillColor=none;fontFamily=Verdana;fontSize=12;align=center;comic=1;" parent="1" vertex="1">
          <mxGeometry x="30" y="230" width="200" height="590" as="geometry" />
        </mxCell>
        <mxCell id="677b7b8949515195-10" value="" style="whiteSpace=wrap;html=1;rounded=0;shadow=0;labelBackgroundColor=none;strokeWidth=1;fillColor=none;fontFamily=Verdana;fontSize=12;align=center;comic=1;" parent="1" vertex="1">
          <mxGeometry x="30" y="47.5" width="1050" height="90" as="geometry" />
        </mxCell>
        <mxCell id="677b7b8949515195-11" value="Osztály1" style="text;html=1;points=[];align=left;verticalAlign=top;spacingTop=-4;fontSize=14;fontFamily=Verdana" parent="1" vertex="1">
          <mxGeometry x="330" y="75" width="60" height="20" as="geometry" />
        </mxCell>
        <mxCell id="677b7b8949515195-12" value="Osztály2" style="text;html=1;points=[];align=left;verticalAlign=top;spacingTop=-4;fontSize=14;fontFamily=Verdana" parent="1" vertex="1">
          <mxGeometry x="477" y="75" width="60" height="20" as="geometry" />
        </mxCell>
        <mxCell id="677b7b8949515195-13" value="Osztály3" style="text;html=1;points=[];align=left;verticalAlign=top;spacingTop=-4;fontSize=14;fontFamily=Verdana" parent="1" vertex="1">
          <mxGeometry x="620" y="75" width="60" height="20" as="geometry" />
        </mxCell>
        <mxCell id="677b7b8949515195-14" value="Osztály4" style="text;html=1;points=[];align=left;verticalAlign=top;spacingTop=-4;fontSize=14;fontFamily=Verdana" parent="1" vertex="1">
          <mxGeometry x="770" y="75" width="60" height="20" as="geometry" />
        </mxCell>
        <mxCell id="677b7b8949515195-27" value="Tanuló1" style="text;html=1;points=[];align=left;verticalAlign=top;spacingTop=-4;fontSize=14;fontFamily=Verdana" parent="1" vertex="1">
          <mxGeometry x="40" y="250" width="170" height="20" as="geometry" />
        </mxCell>
        <mxCell id="677b7b8949515195-28" value="Tanuló2" style="text;html=1;points=[];align=left;verticalAlign=top;spacingTop=-4;fontSize=14;fontFamily=Verdana" parent="1" vertex="1">
          <mxGeometry x="40" y="286" width="170" height="20" as="geometry" />
        </mxCell>
        <mxCell id="677b7b8949515195-29" value="Tanuló3" style="text;html=1;points=[];align=left;verticalAlign=top;spacingTop=-4;fontSize=14;fontFamily=Verdana" parent="1" vertex="1">
          <mxGeometry x="40" y="321" width="170" height="20" as="geometry" />
        </mxCell>
        <mxCell id="677b7b8949515195-30" value="Tanuló4" style="text;html=1;points=[];align=left;verticalAlign=top;spacingTop=-4;fontSize=14;fontFamily=Verdana" parent="1" vertex="1">
          <mxGeometry x="40" y="357" width="170" height="20" as="geometry" />
        </mxCell>
        <mxCell id="677b7b8949515195-39" value="Tanuló6" style="text;html=1;points=[];align=left;verticalAlign=top;spacingTop=-4;fontSize=14;fontFamily=Verdana" parent="1" vertex="1">
          <mxGeometry x="40" y="393" width="170" height="20" as="geometry" />
        </mxCell>
        <mxCell id="677b7b8949515195-40" value="..." style="text;html=1;points=[];align=left;verticalAlign=top;spacingTop=-4;fontSize=14;fontFamily=Verdana" parent="1" vertex="1">
          <mxGeometry x="40" y="429" width="170" height="20" as="geometry" />
        </mxCell>
        <mxCell id="3i7h1Ok6vT08nvccPchP-1" value="" style="swimlane;startSize=0;" vertex="1" parent="1">
          <mxGeometry x="280" y="230" width="800" height="590" as="geometry">
            <mxRectangle x="760" y="470" width="50" height="40" as="alternateBounds" />
          </mxGeometry>
        </mxCell>
        <mxCell id="3i7h1Ok6vT08nvccPchP-2" value="XY tanuló jegyei" style="shape=table;startSize=30;container=1;collapsible=0;childLayout=tableLayout;strokeColor=default;fontSize=16;" vertex="1" parent="3i7h1Ok6vT08nvccPchP-1">
          <mxGeometry width="800" height="590" as="geometry" />
        </mxCell>
        <mxCell id="3i7h1Ok6vT08nvccPchP-3" value="" style="shape=tableRow;horizontal=0;startSize=0;swimlaneHead=0;swimlaneBody=0;strokeColor=inherit;top=0;left=0;bottom=0;right=0;collapsible=0;dropTarget=0;fillColor=none;points=[[0,0.5],[1,0.5]];portConstraint=eastwest;fontSize=16;" vertex="1" parent="3i7h1Ok6vT08nvccPchP-2">
          <mxGeometry y="30" width="800" height="218" as="geometry" />
        </mxCell>
        <mxCell id="3i7h1Ok6vT08nvccPchP-4" value="Informatika" style="shape=partialRectangle;html=1;whiteSpace=wrap;connectable=0;strokeColor=inherit;overflow=hidden;fillColor=none;top=0;left=0;bottom=0;right=0;pointerEvents=1;fontSize=16;" vertex="1" parent="3i7h1Ok6vT08nvccPchP-3">
          <mxGeometry width="267" height="218" as="geometry">
            <mxRectangle width="267" height="218" as="alternateBounds" />
          </mxGeometry>
        </mxCell>
        <mxCell id="3i7h1Ok6vT08nvccPchP-5" value="1" style="shape=partialRectangle;html=1;whiteSpace=wrap;connectable=0;strokeColor=inherit;overflow=hidden;fillColor=none;top=0;left=0;bottom=0;right=0;pointerEvents=1;fontSize=16;" vertex="1" parent="3i7h1Ok6vT08nvccPchP-3">
          <mxGeometry x="267" width="266" height="218" as="geometry">
            <mxRectangle width="266" height="218" as="alternateBounds" />
          </mxGeometry>
        </mxCell>
        <mxCell id="3i7h1Ok6vT08nvccPchP-6" value="2" style="shape=partialRectangle;html=1;whiteSpace=wrap;connectable=0;strokeColor=inherit;overflow=hidden;fillColor=none;top=0;left=0;bottom=0;right=0;pointerEvents=1;fontSize=16;" vertex="1" parent="3i7h1Ok6vT08nvccPchP-3">
          <mxGeometry x="533" width="267" height="218" as="geometry">
            <mxRectangle width="267" height="218" as="alternateBounds" />
          </mxGeometry>
        </mxCell>
        <mxCell id="3i7h1Ok6vT08nvccPchP-7" value="" style="shape=tableRow;horizontal=0;startSize=0;swimlaneHead=0;swimlaneBody=0;strokeColor=inherit;top=0;left=0;bottom=0;right=0;collapsible=0;dropTarget=0;fillColor=none;points=[[0,0.5],[1,0.5]];portConstraint=eastwest;fontSize=16;" vertex="1" parent="3i7h1Ok6vT08nvccPchP-2">
          <mxGeometry y="248" width="800" height="186" as="geometry" />
        </mxCell>
        <mxCell id="3i7h1Ok6vT08nvccPchP-8" value="Matek" style="shape=partialRectangle;html=1;whiteSpace=wrap;connectable=0;strokeColor=inherit;overflow=hidden;fillColor=none;top=0;left=0;bottom=0;right=0;pointerEvents=1;fontSize=16;" vertex="1" parent="3i7h1Ok6vT08nvccPchP-7">
          <mxGeometry width="267" height="186" as="geometry">
            <mxRectangle width="267" height="186" as="alternateBounds" />
          </mxGeometry>
        </mxCell>
        <mxCell id="3i7h1Ok6vT08nvccPchP-9" value="3" style="shape=partialRectangle;html=1;whiteSpace=wrap;connectable=0;strokeColor=inherit;overflow=hidden;fillColor=none;top=0;left=0;bottom=0;right=0;pointerEvents=1;fontSize=16;" vertex="1" parent="3i7h1Ok6vT08nvccPchP-7">
          <mxGeometry x="267" width="266" height="186" as="geometry">
            <mxRectangle width="266" height="186" as="alternateBounds" />
          </mxGeometry>
        </mxCell>
        <mxCell id="3i7h1Ok6vT08nvccPchP-10" value="4" style="shape=partialRectangle;html=1;whiteSpace=wrap;connectable=0;strokeColor=inherit;overflow=hidden;fillColor=none;top=0;left=0;bottom=0;right=0;pointerEvents=1;fontSize=16;" vertex="1" parent="3i7h1Ok6vT08nvccPchP-7">
          <mxGeometry x="533" width="267" height="186" as="geometry">
            <mxRectangle width="267" height="186" as="alternateBounds" />
          </mxGeometry>
        </mxCell>
        <mxCell id="3i7h1Ok6vT08nvccPchP-11" value="" style="shape=tableRow;horizontal=0;startSize=0;swimlaneHead=0;swimlaneBody=0;strokeColor=inherit;top=0;left=0;bottom=0;right=0;collapsible=0;dropTarget=0;fillColor=none;points=[[0,0.5],[1,0.5]];portConstraint=eastwest;fontSize=16;" vertex="1" parent="3i7h1Ok6vT08nvccPchP-2">
          <mxGeometry y="434" width="800" height="156" as="geometry" />
        </mxCell>
        <mxCell id="3i7h1Ok6vT08nvccPchP-12" value="...&lt;div&gt;&lt;br&gt;&lt;/div&gt;" style="shape=partialRectangle;html=1;whiteSpace=wrap;connectable=0;strokeColor=inherit;overflow=hidden;fillColor=none;top=0;left=0;bottom=0;right=0;pointerEvents=1;fontSize=16;" vertex="1" parent="3i7h1Ok6vT08nvccPchP-11">
          <mxGeometry width="267" height="156" as="geometry">
            <mxRectangle width="267" height="156" as="alternateBounds" />
          </mxGeometry>
        </mxCell>
        <mxCell id="3i7h1Ok6vT08nvccPchP-13" value="..." style="shape=partialRectangle;html=1;whiteSpace=wrap;connectable=0;strokeColor=inherit;overflow=hidden;fillColor=none;top=0;left=0;bottom=0;right=0;pointerEvents=1;fontSize=16;" vertex="1" parent="3i7h1Ok6vT08nvccPchP-11">
          <mxGeometry x="267" width="266" height="156" as="geometry">
            <mxRectangle width="266" height="156" as="alternateBounds" />
          </mxGeometry>
        </mxCell>
        <mxCell id="3i7h1Ok6vT08nvccPchP-14" value="..." style="shape=partialRectangle;html=1;whiteSpace=wrap;connectable=0;strokeColor=inherit;overflow=hidden;fillColor=none;top=0;left=0;bottom=0;right=0;pointerEvents=1;fontSize=16;" vertex="1" parent="3i7h1Ok6vT08nvccPchP-11">
          <mxGeometry x="533" width="267" height="156" as="geometry">
            <mxRectangle width="267" height="156" as="alternateBounds" />
          </mxGeometry>
        </mxCell>
        <mxCell id="3i7h1Ok6vT08nvccPchP-16" value="" style="verticalLabelPosition=bottom;shadow=0;dashed=0;align=center;html=1;verticalAlign=top;strokeWidth=1;shape=mxgraph.mockup.containers.userMale;strokeColor=#666666;strokeColor2=#008cff;" vertex="1" parent="1">
          <mxGeometry x="40" y="56.25" width="50" height="72.5" as="geometry" />
        </mxCell>
        <mxCell id="3i7h1Ok6vT08nvccPchP-17" value="&lt;font style=&quot;font-size: 13px;&quot;&gt;Kijelentkezés&lt;/font&gt;" style="strokeWidth=1;shadow=0;dashed=0;align=center;html=1;shape=mxgraph.mockup.buttons.button;strokeColor=#666666;fontColor=#ffffff;mainText=;buttonStyle=round;fontSize=17;fontStyle=1;fillColor=#008cff;whiteSpace=wrap;" vertex="1" parent="1">
          <mxGeometry x="960" y="70" width="90" height="30" as="geometry" />
        </mxCell>
      </root>
    </mxGraphModel>
  </diagram>
</mxfile>
